P2
6  6
256
110
70
20
22
1
91
40
35
59
71
91
102
36
62
34
77
121
87
72
72
2
16
98
102
32
19
6
59
38
56
56
4
105
74
37
14
